<mxfile host="app.diagrams.net" agent="Mozilla/5.0 (Macintosh; Intel Mac OS X 10_15_7) AppleWebKit/537.36 (KHTML, like Gecko) Chrome/131.0.0.0 Safari/537.36" version="25.0.1" pages="8">
  <diagram name="Page-1" id="PNYIMiN4enTAW9c-Qkue">
    <mxGraphModel dx="607" dy="365" grid="1" gridSize="10" guides="1" tooltips="1" connect="1" arrows="1" fold="1" page="1" pageScale="1" pageWidth="827" pageHeight="1169" math="0" shadow="0">
      <root>
        <mxCell id="0" />
        <mxCell id="1" parent="0" />
        <mxCell id="No5vf8k22EMELD1Lo-l7-3" value="" style="edgeStyle=orthogonalEdgeStyle;rounded=0;orthogonalLoop=1;jettySize=auto;html=1;" edge="1" parent="1" source="No5vf8k22EMELD1Lo-l7-1" target="No5vf8k22EMELD1Lo-l7-2">
          <mxGeometry relative="1" as="geometry" />
        </mxCell>
        <mxCell id="No5vf8k22EMELD1Lo-l7-1" value="ng server&amp;nbsp; /&amp;nbsp;&lt;div&gt;npm start&lt;br&gt;&lt;div&gt;&lt;br&gt;&lt;/div&gt;&lt;/div&gt;" style="text;html=1;align=center;verticalAlign=middle;resizable=0;points=[];autosize=1;strokeColor=none;fillColor=none;" vertex="1" parent="1">
          <mxGeometry x="125" y="120" width="90" height="60" as="geometry" />
        </mxCell>
        <mxCell id="No5vf8k22EMELD1Lo-l7-5" value="" style="edgeStyle=orthogonalEdgeStyle;rounded=0;orthogonalLoop=1;jettySize=auto;html=1;" edge="1" parent="1" source="No5vf8k22EMELD1Lo-l7-2" target="No5vf8k22EMELD1Lo-l7-4">
          <mxGeometry relative="1" as="geometry" />
        </mxCell>
        <mxCell id="No5vf8k22EMELD1Lo-l7-2" value="Webpack Dev Server&lt;div&gt;localhost:4200&lt;/div&gt;" style="text;html=1;align=center;verticalAlign=middle;resizable=0;points=[];autosize=1;strokeColor=none;fillColor=none;" vertex="1" parent="1">
          <mxGeometry x="270" y="130" width="140" height="40" as="geometry" />
        </mxCell>
        <mxCell id="No5vf8k22EMELD1Lo-l7-7" value="" style="edgeStyle=orthogonalEdgeStyle;rounded=0;orthogonalLoop=1;jettySize=auto;html=1;" edge="1" parent="1" source="No5vf8k22EMELD1Lo-l7-4" target="No5vf8k22EMELD1Lo-l7-6">
          <mxGeometry relative="1" as="geometry" />
        </mxCell>
        <mxCell id="No5vf8k22EMELD1Lo-l7-4" value="loads src/index.html" style="text;html=1;align=center;verticalAlign=middle;resizable=0;points=[];autosize=1;strokeColor=none;fillColor=none;" vertex="1" parent="1">
          <mxGeometry x="495" y="135" width="130" height="30" as="geometry" />
        </mxCell>
        <mxCell id="No5vf8k22EMELD1Lo-l7-10" value="" style="edgeStyle=orthogonalEdgeStyle;rounded=0;orthogonalLoop=1;jettySize=auto;html=1;" edge="1" parent="1" source="No5vf8k22EMELD1Lo-l7-6" target="No5vf8k22EMELD1Lo-l7-9">
          <mxGeometry relative="1" as="geometry" />
        </mxCell>
        <mxCell id="No5vf8k22EMELD1Lo-l7-6" value="loads src/main.ts" style="text;html=1;align=center;verticalAlign=middle;resizable=0;points=[];autosize=1;strokeColor=none;fillColor=none;" vertex="1" parent="1">
          <mxGeometry x="505" y="245" width="110" height="30" as="geometry" />
        </mxCell>
        <mxCell id="No5vf8k22EMELD1Lo-l7-8" value="&amp;lt;app-root&amp;gt;" style="text;html=1;align=center;verticalAlign=middle;resizable=0;points=[];autosize=1;strokeColor=none;fillColor=none;" vertex="1" parent="1">
          <mxGeometry x="560" y="157" width="80" height="30" as="geometry" />
        </mxCell>
        <mxCell id="No5vf8k22EMELD1Lo-l7-12" value="" style="edgeStyle=orthogonalEdgeStyle;rounded=0;orthogonalLoop=1;jettySize=auto;html=1;" edge="1" parent="1" source="No5vf8k22EMELD1Lo-l7-9" target="No5vf8k22EMELD1Lo-l7-11">
          <mxGeometry relative="1" as="geometry" />
        </mxCell>
        <mxCell id="No5vf8k22EMELD1Lo-l7-9" value="loads src/app.module.ts&lt;div&gt;(Root Module)&lt;/div&gt;" style="text;html=1;align=center;verticalAlign=middle;resizable=0;points=[];autosize=1;strokeColor=none;fillColor=none;" vertex="1" parent="1">
          <mxGeometry x="295" y="240" width="150" height="40" as="geometry" />
        </mxCell>
        <mxCell id="No5vf8k22EMELD1Lo-l7-14" value="" style="edgeStyle=orthogonalEdgeStyle;rounded=0;orthogonalLoop=1;jettySize=auto;html=1;" edge="1" parent="1" source="No5vf8k22EMELD1Lo-l7-11" target="No5vf8k22EMELD1Lo-l7-13">
          <mxGeometry relative="1" as="geometry" />
        </mxCell>
        <mxCell id="No5vf8k22EMELD1Lo-l7-11" value="loads src/app.component.ts&lt;div&gt;(Root Component)&lt;/div&gt;" style="text;html=1;align=center;verticalAlign=middle;resizable=0;points=[];autosize=1;strokeColor=none;fillColor=none;" vertex="1" parent="1">
          <mxGeometry x="55" y="240" width="170" height="40" as="geometry" />
        </mxCell>
        <mxCell id="No5vf8k22EMELD1Lo-l7-13" value="loads src/app.component.html&lt;div&gt;(Root Component Template)&lt;/div&gt;" style="text;html=1;align=center;verticalAlign=middle;resizable=0;points=[];autosize=1;strokeColor=none;fillColor=none;" vertex="1" parent="1">
          <mxGeometry x="50" y="360" width="180" height="40" as="geometry" />
        </mxCell>
        <mxCell id="No5vf8k22EMELD1Lo-l7-15" value="Angular Bootstrap Process" style="text;strokeColor=none;fillColor=none;html=1;fontSize=24;fontStyle=1;verticalAlign=middle;align=center;" vertex="1" parent="1">
          <mxGeometry x="290" y="80" width="100" height="40" as="geometry" />
        </mxCell>
      </root>
    </mxGraphModel>
  </diagram>
  <diagram id="sfB3adkbFkbZhaxOzzKF" name="Page-2">
    <mxGraphModel dx="1473" dy="389" grid="1" gridSize="10" guides="1" tooltips="1" connect="1" arrows="1" fold="1" page="1" pageScale="1" pageWidth="827" pageHeight="1169" math="0" shadow="0">
      <root>
        <mxCell id="0" />
        <mxCell id="1" parent="0" />
        <mxCell id="t8yYEfN2H0WrPpdBJ80b-4" style="edgeStyle=orthogonalEdgeStyle;rounded=0;orthogonalLoop=1;jettySize=auto;html=1;exitX=0.5;exitY=0;exitDx=0;exitDy=0;entryX=0.5;entryY=0;entryDx=0;entryDy=0;" edge="1" parent="1" source="t8yYEfN2H0WrPpdBJ80b-1" target="t8yYEfN2H0WrPpdBJ80b-2">
          <mxGeometry relative="1" as="geometry">
            <Array as="points">
              <mxPoint x="180" y="130" />
              <mxPoint x="540" y="130" />
            </Array>
          </mxGeometry>
        </mxCell>
        <mxCell id="t8yYEfN2H0WrPpdBJ80b-1" value="Component Class" style="rounded=0;whiteSpace=wrap;html=1;" vertex="1" parent="1">
          <mxGeometry x="120" y="200" width="120" height="60" as="geometry" />
        </mxCell>
        <mxCell id="t8yYEfN2H0WrPpdBJ80b-7" style="edgeStyle=orthogonalEdgeStyle;rounded=0;orthogonalLoop=1;jettySize=auto;html=1;exitX=0.5;exitY=1;exitDx=0;exitDy=0;entryX=0.5;entryY=1;entryDx=0;entryDy=0;" edge="1" parent="1" source="t8yYEfN2H0WrPpdBJ80b-2" target="t8yYEfN2H0WrPpdBJ80b-1">
          <mxGeometry relative="1" as="geometry">
            <Array as="points">
              <mxPoint x="540" y="320" />
              <mxPoint x="180" y="320" />
            </Array>
          </mxGeometry>
        </mxCell>
        <mxCell id="t8yYEfN2H0WrPpdBJ80b-2" value="Component View / Template" style="rounded=0;whiteSpace=wrap;html=1;" vertex="1" parent="1">
          <mxGeometry x="480" y="200" width="120" height="60" as="geometry" />
        </mxCell>
        <mxCell id="t8yYEfN2H0WrPpdBJ80b-3" value="Model&lt;div&gt;username = &quot;John Doe&quot;&lt;/div&gt;" style="text;html=1;align=center;verticalAlign=middle;resizable=0;points=[];autosize=1;strokeColor=none;fillColor=none;" vertex="1" parent="1">
          <mxGeometry x="-20" y="210" width="150" height="40" as="geometry" />
        </mxCell>
        <mxCell id="t8yYEfN2H0WrPpdBJ80b-5" value="[ Property Binding ] / {{ Angular Interpolation }}" style="text;html=1;align=center;verticalAlign=middle;resizable=0;points=[];autosize=1;strokeColor=none;fillColor=none;" vertex="1" parent="1">
          <mxGeometry x="210" y="138" width="270" height="30" as="geometry" />
        </mxCell>
        <mxCell id="t8yYEfN2H0WrPpdBJ80b-8" value="( Event Binding )" style="text;html=1;align=center;verticalAlign=middle;resizable=0;points=[];autosize=1;strokeColor=none;fillColor=none;" vertex="1" parent="1">
          <mxGeometry x="285" y="278" width="110" height="30" as="geometry" />
        </mxCell>
        <mxCell id="t8yYEfN2H0WrPpdBJ80b-9" value="2way data binding = PB + EB&lt;div&gt;&lt;br&gt;&lt;/div&gt;&lt;div&gt;[( ngModel )] =&amp;gt; &quot;Banana in the box&quot;&lt;/div&gt;" style="text;html=1;align=center;verticalAlign=middle;resizable=0;points=[];autosize=1;strokeColor=none;fillColor=none;" vertex="1" parent="1">
          <mxGeometry x="230" y="350" width="220" height="60" as="geometry" />
        </mxCell>
      </root>
    </mxGraphModel>
  </diagram>
  <diagram id="-BjC8LXlvYSNmVjsGtY0" name="Page-3">
    <mxGraphModel dx="802" dy="482" grid="1" gridSize="10" guides="1" tooltips="1" connect="1" arrows="1" fold="1" page="1" pageScale="1" pageWidth="827" pageHeight="1169" math="0" shadow="0">
      <root>
        <mxCell id="0" />
        <mxCell id="1" parent="0" />
        <mxCell id="6_cBFLXS_U2W76g9tleg-3" value="" style="edgeStyle=orthogonalEdgeStyle;rounded=0;orthogonalLoop=1;jettySize=auto;html=1;" edge="1" parent="1" source="6_cBFLXS_U2W76g9tleg-1" target="6_cBFLXS_U2W76g9tleg-2">
          <mxGeometry relative="1" as="geometry" />
        </mxCell>
        <mxCell id="6_cBFLXS_U2W76g9tleg-1" value="App Comp" style="rounded=0;whiteSpace=wrap;html=1;" vertex="1" parent="1">
          <mxGeometry x="360" y="160" width="120" height="60" as="geometry" />
        </mxCell>
        <mxCell id="6_cBFLXS_U2W76g9tleg-5" value="" style="edgeStyle=orthogonalEdgeStyle;rounded=0;orthogonalLoop=1;jettySize=auto;html=1;" edge="1" parent="1" source="6_cBFLXS_U2W76g9tleg-2" target="6_cBFLXS_U2W76g9tleg-4">
          <mxGeometry relative="1" as="geometry" />
        </mxCell>
        <mxCell id="6_cBFLXS_U2W76g9tleg-7" style="edgeStyle=orthogonalEdgeStyle;rounded=0;orthogonalLoop=1;jettySize=auto;html=1;exitX=0.5;exitY=1;exitDx=0;exitDy=0;entryX=0.5;entryY=0;entryDx=0;entryDy=0;" edge="1" parent="1" source="6_cBFLXS_U2W76g9tleg-2" target="6_cBFLXS_U2W76g9tleg-6">
          <mxGeometry relative="1" as="geometry" />
        </mxCell>
        <mxCell id="6_cBFLXS_U2W76g9tleg-2" value="Users Comp" style="whiteSpace=wrap;html=1;rounded=0;" vertex="1" parent="1">
          <mxGeometry x="360" y="280" width="120" height="60" as="geometry" />
        </mxCell>
        <mxCell id="6_cBFLXS_U2W76g9tleg-4" value="UserInfo Comp" style="whiteSpace=wrap;html=1;rounded=0;" vertex="1" parent="1">
          <mxGeometry x="290" y="420" width="120" height="60" as="geometry" />
        </mxCell>
        <mxCell id="6_cBFLXS_U2W76g9tleg-6" value="UserImage Comp" style="whiteSpace=wrap;html=1;rounded=0;" vertex="1" parent="1">
          <mxGeometry x="440" y="420" width="120" height="60" as="geometry" />
        </mxCell>
      </root>
    </mxGraphModel>
  </diagram>
  <diagram id="8VOquHgw04xCR1b-MX0K" name="Page-4">
    <mxGraphModel dx="668" dy="402" grid="1" gridSize="10" guides="1" tooltips="1" connect="1" arrows="1" fold="1" page="1" pageScale="1" pageWidth="827" pageHeight="1169" math="0" shadow="0">
      <root>
        <mxCell id="0" />
        <mxCell id="1" parent="0" />
        <mxCell id="P6Bdn8qatPzHTwqeqGTg-5" style="edgeStyle=orthogonalEdgeStyle;rounded=0;orthogonalLoop=1;jettySize=auto;html=1;exitX=0.25;exitY=1;exitDx=0;exitDy=0;entryX=0.25;entryY=0;entryDx=0;entryDy=0;" edge="1" parent="1" source="P6Bdn8qatPzHTwqeqGTg-1" target="P6Bdn8qatPzHTwqeqGTg-2">
          <mxGeometry relative="1" as="geometry" />
        </mxCell>
        <mxCell id="P6Bdn8qatPzHTwqeqGTg-1" value="Users Comp" style="rounded=0;whiteSpace=wrap;html=1;" vertex="1" parent="1">
          <mxGeometry x="354" y="120" width="120" height="60" as="geometry" />
        </mxCell>
        <mxCell id="P6Bdn8qatPzHTwqeqGTg-8" style="edgeStyle=orthogonalEdgeStyle;rounded=0;orthogonalLoop=1;jettySize=auto;html=1;exitX=0.75;exitY=0;exitDx=0;exitDy=0;entryX=0.75;entryY=1;entryDx=0;entryDy=0;" edge="1" parent="1" source="P6Bdn8qatPzHTwqeqGTg-2" target="P6Bdn8qatPzHTwqeqGTg-1">
          <mxGeometry relative="1" as="geometry" />
        </mxCell>
        <mxCell id="P6Bdn8qatPzHTwqeqGTg-2" value="UserImage Comp" style="rounded=0;whiteSpace=wrap;html=1;" vertex="1" parent="1">
          <mxGeometry x="354" y="350" width="120" height="60" as="geometry" />
        </mxCell>
        <mxCell id="P6Bdn8qatPzHTwqeqGTg-4" value="user { }" style="text;html=1;align=center;verticalAlign=middle;resizable=0;points=[];autosize=1;strokeColor=none;fillColor=none;" vertex="1" parent="1">
          <mxGeometry x="260" y="90" width="60" height="30" as="geometry" />
        </mxCell>
        <mxCell id="P6Bdn8qatPzHTwqeqGTg-6" value="[ Property Binding ]" style="text;html=1;align=center;verticalAlign=middle;resizable=0;points=[];autosize=1;strokeColor=none;fillColor=none;" vertex="1" parent="1">
          <mxGeometry x="195" y="138" width="130" height="30" as="geometry" />
        </mxCell>
        <mxCell id="P6Bdn8qatPzHTwqeqGTg-7" value="@Input()" style="text;html=1;align=center;verticalAlign=middle;resizable=0;points=[];autosize=1;strokeColor=none;fillColor=none;" vertex="1" parent="1">
          <mxGeometry x="240" y="358" width="70" height="30" as="geometry" />
        </mxCell>
        <mxCell id="P6Bdn8qatPzHTwqeqGTg-9" value="@Output()&lt;div&gt;&lt;br&gt;&lt;/div&gt;&lt;div&gt;EventEmitter Class&lt;/div&gt;" style="text;html=1;align=center;verticalAlign=middle;resizable=0;points=[];autosize=1;strokeColor=none;fillColor=none;" vertex="1" parent="1">
          <mxGeometry x="474" y="350" width="130" height="60" as="geometry" />
        </mxCell>
        <mxCell id="P6Bdn8qatPzHTwqeqGTg-10" value="( Event Binding )" style="text;html=1;align=center;verticalAlign=middle;resizable=0;points=[];autosize=1;strokeColor=none;fillColor=none;" vertex="1" parent="1">
          <mxGeometry x="484" y="128" width="110" height="30" as="geometry" />
        </mxCell>
        <mxCell id="P6Bdn8qatPzHTwqeqGTg-11" value="onMoreInfo()" style="text;html=1;align=center;verticalAlign=middle;resizable=0;points=[];autosize=1;strokeColor=none;fillColor=none;" vertex="1" parent="1">
          <mxGeometry x="340" y="90" width="90" height="30" as="geometry" />
        </mxCell>
        <mxCell id="P6Bdn8qatPzHTwqeqGTg-12" value="Nested Component Communication" style="text;strokeColor=none;fillColor=none;html=1;fontSize=24;fontStyle=1;verticalAlign=middle;align=center;" vertex="1" parent="1">
          <mxGeometry x="364" y="40" width="100" height="40" as="geometry" />
        </mxCell>
      </root>
    </mxGraphModel>
  </diagram>
  <diagram id="zrgXdw0X7d7sORQV2trZ" name="Page-5">
    <mxGraphModel dx="691" dy="416" grid="1" gridSize="10" guides="1" tooltips="1" connect="1" arrows="1" fold="1" page="1" pageScale="1" pageWidth="827" pageHeight="1169" math="0" shadow="0">
      <root>
        <mxCell id="0" />
        <mxCell id="1" parent="0" />
        <mxCell id="zUqPdhvyWQC292VBGtpM-3" value="" style="edgeStyle=orthogonalEdgeStyle;rounded=0;orthogonalLoop=1;jettySize=auto;html=1;" edge="1" parent="1" source="zUqPdhvyWQC292VBGtpM-1" target="zUqPdhvyWQC292VBGtpM-2">
          <mxGeometry relative="1" as="geometry" />
        </mxCell>
        <mxCell id="zUqPdhvyWQC292VBGtpM-1" value="App" style="rounded=0;whiteSpace=wrap;html=1;" vertex="1" parent="1">
          <mxGeometry x="320" y="160" width="120" height="60" as="geometry" />
        </mxCell>
        <mxCell id="zUqPdhvyWQC292VBGtpM-5" value="" style="edgeStyle=orthogonalEdgeStyle;rounded=0;orthogonalLoop=1;jettySize=auto;html=1;" edge="1" parent="1" source="zUqPdhvyWQC292VBGtpM-2" target="zUqPdhvyWQC292VBGtpM-4">
          <mxGeometry relative="1" as="geometry" />
        </mxCell>
        <mxCell id="zUqPdhvyWQC292VBGtpM-7" style="edgeStyle=orthogonalEdgeStyle;rounded=0;orthogonalLoop=1;jettySize=auto;html=1;exitX=0.5;exitY=1;exitDx=0;exitDy=0;entryX=0.5;entryY=0;entryDx=0;entryDy=0;" edge="1" parent="1" source="zUqPdhvyWQC292VBGtpM-2" target="zUqPdhvyWQC292VBGtpM-6">
          <mxGeometry relative="1" as="geometry" />
        </mxCell>
        <mxCell id="zUqPdhvyWQC292VBGtpM-2" value="Users" style="rounded=0;whiteSpace=wrap;html=1;" vertex="1" parent="1">
          <mxGeometry x="320" y="300" width="120" height="60" as="geometry" />
        </mxCell>
        <mxCell id="zUqPdhvyWQC292VBGtpM-4" value="UsersInfo" style="rounded=0;whiteSpace=wrap;html=1;fillColor=#d5e8d4;strokeColor=#82b366;" vertex="1" parent="1">
          <mxGeometry x="235" y="440" width="120" height="60" as="geometry" />
        </mxCell>
        <mxCell id="zUqPdhvyWQC292VBGtpM-6" value="UsersImage" style="rounded=0;whiteSpace=wrap;html=1;" vertex="1" parent="1">
          <mxGeometry x="405" y="440" width="120" height="60" as="geometry" />
        </mxCell>
        <mxCell id="zUqPdhvyWQC292VBGtpM-8" value="AppChangeDetection" style="ellipse;whiteSpace=wrap;html=1;" vertex="1" parent="1">
          <mxGeometry x="390" y="190" width="130" height="40" as="geometry" />
        </mxCell>
        <mxCell id="zUqPdhvyWQC292VBGtpM-9" value="" style="ellipse;whiteSpace=wrap;html=1;" vertex="1" parent="1">
          <mxGeometry x="500" y="480" width="90" height="40" as="geometry" />
        </mxCell>
        <mxCell id="zUqPdhvyWQC292VBGtpM-10" value="" style="ellipse;whiteSpace=wrap;html=1;" vertex="1" parent="1">
          <mxGeometry x="310" y="480" width="90" height="40" as="geometry" />
        </mxCell>
        <mxCell id="zUqPdhvyWQC292VBGtpM-11" value="" style="ellipse;whiteSpace=wrap;html=1;" vertex="1" parent="1">
          <mxGeometry x="400" y="330" width="90" height="40" as="geometry" />
        </mxCell>
        <mxCell id="zUqPdhvyWQC292VBGtpM-12" value="" style="endArrow=classic;html=1;rounded=0;" edge="1" parent="1">
          <mxGeometry width="50" height="50" relative="1" as="geometry">
            <mxPoint x="185" y="170" as="sourcePoint" />
            <mxPoint x="180" y="490" as="targetPoint" />
          </mxGeometry>
        </mxCell>
        <mxCell id="zUqPdhvyWQC292VBGtpM-13" value="prevValue === currValue" style="text;html=1;align=center;verticalAlign=middle;resizable=0;points=[];autosize=1;strokeColor=none;fillColor=none;" vertex="1" parent="1">
          <mxGeometry x="465" y="158" width="150" height="30" as="geometry" />
        </mxCell>
        <mxCell id="zUqPdhvyWQC292VBGtpM-14" value="Dirty Checking" style="text;html=1;align=center;verticalAlign=middle;resizable=0;points=[];autosize=1;strokeColor=#6c8ebf;fillColor=#dae8fc;" vertex="1" parent="1">
          <mxGeometry x="610" y="158" width="100" height="30" as="geometry" />
        </mxCell>
        <mxCell id="zUqPdhvyWQC292VBGtpM-15" value="prevValue === currValue" style="text;html=1;align=center;verticalAlign=middle;resizable=0;points=[];autosize=1;strokeColor=none;fillColor=none;" vertex="1" parent="1">
          <mxGeometry x="450" y="300" width="150" height="30" as="geometry" />
        </mxCell>
        <mxCell id="zUqPdhvyWQC292VBGtpM-16" value="prevValue = currValue" style="text;html=1;align=center;verticalAlign=middle;resizable=0;points=[];autosize=1;strokeColor=none;fillColor=none;" vertex="1" parent="1">
          <mxGeometry x="500" y="335" width="140" height="30" as="geometry" />
        </mxCell>
        <mxCell id="zUqPdhvyWQC292VBGtpM-17" value="Angular Change Detection - Digest Cycle" style="text;strokeColor=none;fillColor=none;html=1;fontSize=24;fontStyle=1;verticalAlign=middle;align=center;" vertex="1" parent="1">
          <mxGeometry x="330" y="90" width="100" height="40" as="geometry" />
        </mxCell>
        <mxCell id="zUqPdhvyWQC292VBGtpM-18" value="ChangeDetectionStrategies&lt;div&gt;- Default&lt;/div&gt;&lt;div&gt;- OnPush&lt;/div&gt;" style="text;html=1;align=center;verticalAlign=middle;resizable=0;points=[];autosize=1;strokeColor=none;fillColor=none;fontStyle=1" vertex="1" parent="1">
          <mxGeometry x="140" y="580" width="170" height="60" as="geometry" />
        </mxCell>
      </root>
    </mxGraphModel>
  </diagram>
  <diagram id="a32HqbmEiMF9n54LiOYZ" name="Page-6">
    <mxGraphModel dx="954" dy="574" grid="1" gridSize="10" guides="1" tooltips="1" connect="1" arrows="1" fold="1" page="1" pageScale="1" pageWidth="827" pageHeight="1169" math="0" shadow="0">
      <root>
        <mxCell id="0" />
        <mxCell id="1" parent="0" />
        <mxCell id="a3WhzxsjiebEosHOWcw5-5" value="" style="edgeStyle=orthogonalEdgeStyle;rounded=0;orthogonalLoop=1;jettySize=auto;html=1;" edge="1" parent="1" source="a3WhzxsjiebEosHOWcw5-1" target="a3WhzxsjiebEosHOWcw5-4">
          <mxGeometry relative="1" as="geometry" />
        </mxCell>
        <mxCell id="a3WhzxsjiebEosHOWcw5-1" value="UsersComp" style="rounded=0;whiteSpace=wrap;html=1;" vertex="1" parent="1">
          <mxGeometry x="159" y="190" width="120" height="60" as="geometry" />
        </mxCell>
        <mxCell id="a3WhzxsjiebEosHOWcw5-6" style="edgeStyle=orthogonalEdgeStyle;rounded=0;orthogonalLoop=1;jettySize=auto;html=1;exitX=0;exitY=0;exitDx=0;exitDy=27.5;exitPerimeter=0;entryX=1;entryY=0.25;entryDx=0;entryDy=0;" edge="1" parent="1" source="a3WhzxsjiebEosHOWcw5-2" target="a3WhzxsjiebEosHOWcw5-1">
          <mxGeometry relative="1" as="geometry" />
        </mxCell>
        <mxCell id="a3WhzxsjiebEosHOWcw5-9" style="edgeStyle=orthogonalEdgeStyle;rounded=0;orthogonalLoop=1;jettySize=auto;html=1;exitX=0;exitY=0;exitDx=0;exitDy=52.5;exitPerimeter=0;entryX=1;entryY=0.5;entryDx=0;entryDy=0;" edge="1" parent="1" source="a3WhzxsjiebEosHOWcw5-2" target="a3WhzxsjiebEosHOWcw5-8">
          <mxGeometry relative="1" as="geometry" />
        </mxCell>
        <mxCell id="a3WhzxsjiebEosHOWcw5-2" value="mocks.ts" style="shape=cylinder3;whiteSpace=wrap;html=1;boundedLbl=1;backgroundOutline=1;size=15;" vertex="1" parent="1">
          <mxGeometry x="609" y="220" width="60" height="80" as="geometry" />
        </mxCell>
        <mxCell id="a3WhzxsjiebEosHOWcw5-3" value="Data Source" style="text;html=1;align=center;verticalAlign=middle;resizable=0;points=[];autosize=1;strokeColor=none;fillColor=none;" vertex="1" parent="1">
          <mxGeometry x="654" y="198" width="90" height="30" as="geometry" />
        </mxCell>
        <mxCell id="a3WhzxsjiebEosHOWcw5-4" value="UI" style="whiteSpace=wrap;html=1;rounded=0;" vertex="1" parent="1">
          <mxGeometry x="159" y="50" width="120" height="60" as="geometry" />
        </mxCell>
        <mxCell id="a3WhzxsjiebEosHOWcw5-7" value="Model 1" style="text;html=1;align=center;verticalAlign=middle;resizable=0;points=[];autosize=1;strokeColor=none;fillColor=none;" vertex="1" parent="1">
          <mxGeometry x="84" y="198" width="70" height="30" as="geometry" />
        </mxCell>
        <mxCell id="a3WhzxsjiebEosHOWcw5-8" value="EmployeeComp" style="rounded=0;whiteSpace=wrap;html=1;" vertex="1" parent="1">
          <mxGeometry x="159" y="300" width="120" height="60" as="geometry" />
        </mxCell>
        <mxCell id="a3WhzxsjiebEosHOWcw5-10" value="Model 2" style="text;html=1;align=center;verticalAlign=middle;resizable=0;points=[];autosize=1;strokeColor=none;fillColor=none;" vertex="1" parent="1">
          <mxGeometry x="84" y="308" width="70" height="30" as="geometry" />
        </mxCell>
        <mxCell id="a3WhzxsjiebEosHOWcw5-11" value="Data Inconsistency" style="text;html=1;align=center;verticalAlign=middle;resizable=0;points=[];autosize=1;strokeColor=#b85450;fillColor=#f8cecc;" vertex="1" parent="1">
          <mxGeometry x="303" y="360" width="120" height="30" as="geometry" />
        </mxCell>
        <mxCell id="a3WhzxsjiebEosHOWcw5-12" value="Business logic resides in component- tight coupling" style="text;html=1;align=center;verticalAlign=middle;resizable=0;points=[];autosize=1;strokeColor=#b85450;fillColor=#f8cecc;" vertex="1" parent="1">
          <mxGeometry x="303" y="390" width="300" height="30" as="geometry" />
        </mxCell>
        <mxCell id="a3WhzxsjiebEosHOWcw5-13" value="UsersComp" style="rounded=0;whiteSpace=wrap;html=1;" vertex="1" parent="1">
          <mxGeometry x="159" y="530" width="120" height="60" as="geometry" />
        </mxCell>
        <mxCell id="a3WhzxsjiebEosHOWcw5-20" style="edgeStyle=orthogonalEdgeStyle;rounded=0;orthogonalLoop=1;jettySize=auto;html=1;exitX=0;exitY=0.5;exitDx=0;exitDy=0;exitPerimeter=0;entryX=1;entryY=0.5;entryDx=0;entryDy=0;" edge="1" parent="1" source="a3WhzxsjiebEosHOWcw5-16" target="a3WhzxsjiebEosHOWcw5-19">
          <mxGeometry relative="1" as="geometry" />
        </mxCell>
        <mxCell id="a3WhzxsjiebEosHOWcw5-16" value="mocks.ts" style="shape=cylinder3;whiteSpace=wrap;html=1;boundedLbl=1;backgroundOutline=1;size=15;" vertex="1" parent="1">
          <mxGeometry x="669" y="570" width="60" height="80" as="geometry" />
        </mxCell>
        <mxCell id="a3WhzxsjiebEosHOWcw5-17" value="Data Source" style="text;html=1;align=center;verticalAlign=middle;resizable=0;points=[];autosize=1;strokeColor=none;fillColor=none;" vertex="1" parent="1">
          <mxGeometry x="654" y="538" width="90" height="30" as="geometry" />
        </mxCell>
        <mxCell id="a3WhzxsjiebEosHOWcw5-18" value="EmployeeComp" style="rounded=0;whiteSpace=wrap;html=1;" vertex="1" parent="1">
          <mxGeometry x="159" y="640" width="120" height="60" as="geometry" />
        </mxCell>
        <mxCell id="a3WhzxsjiebEosHOWcw5-21" style="edgeStyle=orthogonalEdgeStyle;rounded=0;orthogonalLoop=1;jettySize=auto;html=1;exitX=0;exitY=0.5;exitDx=0;exitDy=0;entryX=1;entryY=0.5;entryDx=0;entryDy=0;" edge="1" parent="1" source="a3WhzxsjiebEosHOWcw5-19" target="a3WhzxsjiebEosHOWcw5-13">
          <mxGeometry relative="1" as="geometry" />
        </mxCell>
        <mxCell id="a3WhzxsjiebEosHOWcw5-22" style="edgeStyle=orthogonalEdgeStyle;rounded=0;orthogonalLoop=1;jettySize=auto;html=1;exitX=0;exitY=0.5;exitDx=0;exitDy=0;entryX=1;entryY=0.5;entryDx=0;entryDy=0;" edge="1" parent="1" source="a3WhzxsjiebEosHOWcw5-19" target="a3WhzxsjiebEosHOWcw5-18">
          <mxGeometry relative="1" as="geometry" />
        </mxCell>
        <mxCell id="a3WhzxsjiebEosHOWcw5-19" value="Service Layer" style="rounded=0;whiteSpace=wrap;html=1;" vertex="1" parent="1">
          <mxGeometry x="390" y="580" width="120" height="60" as="geometry" />
        </mxCell>
        <mxCell id="a3WhzxsjiebEosHOWcw5-23" value="Singleton Effect" style="text;html=1;align=center;verticalAlign=middle;resizable=0;points=[];autosize=1;strokeColor=none;fillColor=none;" vertex="1" parent="1">
          <mxGeometry x="395" y="650" width="110" height="30" as="geometry" />
        </mxCell>
      </root>
    </mxGraphModel>
  </diagram>
  <diagram id="yJrmWyuNmvGZk8H3RD74" name="Page-7">
    <mxGraphModel dx="835" dy="476" grid="1" gridSize="10" guides="1" tooltips="1" connect="1" arrows="1" fold="1" page="1" pageScale="1" pageWidth="827" pageHeight="1169" math="0" shadow="0">
      <root>
        <mxCell id="0" />
        <mxCell id="1" parent="0" />
        <mxCell id="eiUkFap1PjmLIXegGK6f-1" value="Hierarchical Injection" style="text;strokeColor=none;fillColor=none;html=1;fontSize=24;fontStyle=1;verticalAlign=middle;align=center;" vertex="1" parent="1">
          <mxGeometry x="350" y="120" width="100" height="40" as="geometry" />
        </mxCell>
        <mxCell id="eiUkFap1PjmLIXegGK6f-4" value="" style="edgeStyle=orthogonalEdgeStyle;rounded=0;orthogonalLoop=1;jettySize=auto;html=1;" edge="1" parent="1" source="eiUkFap1PjmLIXegGK6f-2" target="eiUkFap1PjmLIXegGK6f-3">
          <mxGeometry relative="1" as="geometry" />
        </mxCell>
        <mxCell id="eiUkFap1PjmLIXegGK6f-2" value="Root Module" style="rounded=0;whiteSpace=wrap;html=1;" vertex="1" parent="1">
          <mxGeometry x="340" y="210" width="120" height="60" as="geometry" />
        </mxCell>
        <mxCell id="eiUkFap1PjmLIXegGK6f-6" value="" style="edgeStyle=orthogonalEdgeStyle;rounded=0;orthogonalLoop=1;jettySize=auto;html=1;" edge="1" parent="1" source="eiUkFap1PjmLIXegGK6f-3" target="eiUkFap1PjmLIXegGK6f-5">
          <mxGeometry relative="1" as="geometry" />
        </mxCell>
        <mxCell id="eiUkFap1PjmLIXegGK6f-8" style="edgeStyle=orthogonalEdgeStyle;rounded=0;orthogonalLoop=1;jettySize=auto;html=1;exitX=0.5;exitY=1;exitDx=0;exitDy=0;" edge="1" parent="1" source="eiUkFap1PjmLIXegGK6f-3" target="eiUkFap1PjmLIXegGK6f-7">
          <mxGeometry relative="1" as="geometry" />
        </mxCell>
        <mxCell id="eiUkFap1PjmLIXegGK6f-10" style="edgeStyle=orthogonalEdgeStyle;rounded=0;orthogonalLoop=1;jettySize=auto;html=1;exitX=0.5;exitY=1;exitDx=0;exitDy=0;" edge="1" parent="1" source="eiUkFap1PjmLIXegGK6f-3" target="eiUkFap1PjmLIXegGK6f-9">
          <mxGeometry relative="1" as="geometry" />
        </mxCell>
        <mxCell id="eiUkFap1PjmLIXegGK6f-3" value="Root Component" style="rounded=0;whiteSpace=wrap;html=1;" vertex="1" parent="1">
          <mxGeometry x="340" y="320" width="120" height="60" as="geometry" />
        </mxCell>
        <mxCell id="eiUkFap1PjmLIXegGK6f-12" value="" style="edgeStyle=orthogonalEdgeStyle;rounded=0;orthogonalLoop=1;jettySize=auto;html=1;" edge="1" parent="1" source="eiUkFap1PjmLIXegGK6f-5" target="eiUkFap1PjmLIXegGK6f-11">
          <mxGeometry relative="1" as="geometry" />
        </mxCell>
        <mxCell id="eiUkFap1PjmLIXegGK6f-14" style="edgeStyle=orthogonalEdgeStyle;rounded=0;orthogonalLoop=1;jettySize=auto;html=1;exitX=0.5;exitY=1;exitDx=0;exitDy=0;" edge="1" parent="1" source="eiUkFap1PjmLIXegGK6f-5" target="eiUkFap1PjmLIXegGK6f-13">
          <mxGeometry relative="1" as="geometry" />
        </mxCell>
        <mxCell id="eiUkFap1PjmLIXegGK6f-5" value="Users Component" style="rounded=0;whiteSpace=wrap;html=1;" vertex="1" parent="1">
          <mxGeometry x="340" y="460" width="120" height="60" as="geometry" />
        </mxCell>
        <mxCell id="eiUkFap1PjmLIXegGK6f-21" style="edgeStyle=orthogonalEdgeStyle;rounded=0;orthogonalLoop=1;jettySize=auto;html=1;exitX=0.5;exitY=1;exitDx=0;exitDy=0;entryX=0;entryY=0.5;entryDx=0;entryDy=0;" edge="1" parent="1" source="eiUkFap1PjmLIXegGK6f-7" target="eiUkFap1PjmLIXegGK6f-18">
          <mxGeometry relative="1" as="geometry" />
        </mxCell>
        <mxCell id="eiUkFap1PjmLIXegGK6f-7" value="Auth Component" style="rounded=0;whiteSpace=wrap;html=1;" vertex="1" parent="1">
          <mxGeometry x="490" y="460" width="120" height="60" as="geometry" />
        </mxCell>
        <mxCell id="eiUkFap1PjmLIXegGK6f-9" value="Products Component" style="rounded=0;whiteSpace=wrap;html=1;" vertex="1" parent="1">
          <mxGeometry x="180" y="460" width="120" height="60" as="geometry" />
        </mxCell>
        <mxCell id="eiUkFap1PjmLIXegGK6f-11" value="UsersInfo Component" style="rounded=0;whiteSpace=wrap;html=1;" vertex="1" parent="1">
          <mxGeometry x="260" y="570" width="120" height="60" as="geometry" />
        </mxCell>
        <mxCell id="eiUkFap1PjmLIXegGK6f-13" value="UsersImage Component" style="rounded=0;whiteSpace=wrap;html=1;" vertex="1" parent="1">
          <mxGeometry x="414" y="570" width="120" height="60" as="geometry" />
        </mxCell>
        <mxCell id="eiUkFap1PjmLIXegGK6f-18" value="Login Component" style="rounded=0;whiteSpace=wrap;html=1;" vertex="1" parent="1">
          <mxGeometry x="590" y="570" width="120" height="60" as="geometry" />
        </mxCell>
        <mxCell id="eiUkFap1PjmLIXegGK6f-19" value="Sign up Component" style="rounded=0;whiteSpace=wrap;html=1;" vertex="1" parent="1">
          <mxGeometry x="590" y="660" width="120" height="60" as="geometry" />
        </mxCell>
        <mxCell id="eiUkFap1PjmLIXegGK6f-20" style="edgeStyle=orthogonalEdgeStyle;rounded=0;orthogonalLoop=1;jettySize=auto;html=1;exitX=0.5;exitY=1;exitDx=0;exitDy=0;entryX=0.003;entryY=0.406;entryDx=0;entryDy=0;entryPerimeter=0;" edge="1" parent="1" source="eiUkFap1PjmLIXegGK6f-7" target="eiUkFap1PjmLIXegGK6f-19">
          <mxGeometry relative="1" as="geometry" />
        </mxCell>
        <mxCell id="eiUkFap1PjmLIXegGK6f-47" style="edgeStyle=orthogonalEdgeStyle;rounded=0;orthogonalLoop=1;jettySize=auto;html=1;exitX=1;exitY=0.5;exitDx=0;exitDy=0;" edge="1" parent="1" source="eiUkFap1PjmLIXegGK6f-22" target="eiUkFap1PjmLIXegGK6f-3">
          <mxGeometry relative="1" as="geometry" />
        </mxCell>
        <mxCell id="eiUkFap1PjmLIXegGK6f-22" value="Data Service" style="ellipse;whiteSpace=wrap;html=1;" vertex="1" parent="1">
          <mxGeometry x="90" y="270" width="120" height="80" as="geometry" />
        </mxCell>
        <mxCell id="eiUkFap1PjmLIXegGK6f-24" value="DS1" style="ellipse;whiteSpace=wrap;html=1;fillColor=#dae8fc;strokeColor=#6c8ebf;" vertex="1" parent="1">
          <mxGeometry x="160" y="325" width="40" height="35" as="geometry" />
        </mxCell>
        <mxCell id="eiUkFap1PjmLIXegGK6f-25" value="DS1" style="ellipse;whiteSpace=wrap;html=1;fillColor=#dae8fc;strokeColor=#6c8ebf;" vertex="1" parent="1">
          <mxGeometry x="260" y="610" width="40" height="35" as="geometry" />
        </mxCell>
        <mxCell id="eiUkFap1PjmLIXegGK6f-27" value="DS1" style="ellipse;whiteSpace=wrap;html=1;fillColor=#dae8fc;strokeColor=#6c8ebf;" vertex="1" parent="1">
          <mxGeometry x="330" y="500" width="40" height="35" as="geometry" />
        </mxCell>
        <mxCell id="eiUkFap1PjmLIXegGK6f-32" value="DS1" style="ellipse;whiteSpace=wrap;html=1;fillColor=#dae8fc;strokeColor=#6c8ebf;" vertex="1" parent="1">
          <mxGeometry x="410" y="610" width="40" height="35" as="geometry" />
        </mxCell>
        <mxCell id="QY-6vJD-9vdvTuF8CQnU-1" style="edgeStyle=orthogonalEdgeStyle;rounded=0;orthogonalLoop=1;jettySize=auto;html=1;exitX=0;exitY=0.5;exitDx=0;exitDy=0;entryX=1;entryY=0.5;entryDx=0;entryDy=0;" edge="1" parent="1" source="eiUkFap1PjmLIXegGK6f-35" target="eiUkFap1PjmLIXegGK6f-2">
          <mxGeometry relative="1" as="geometry" />
        </mxCell>
        <mxCell id="eiUkFap1PjmLIXegGK6f-35" value="Auth Service" style="ellipse;whiteSpace=wrap;html=1;" vertex="1" parent="1">
          <mxGeometry x="600" y="270" width="120" height="80" as="geometry" />
        </mxCell>
        <mxCell id="eiUkFap1PjmLIXegGK6f-36" value="AS1" style="ellipse;whiteSpace=wrap;html=1;fillColor=#d5e8d4;strokeColor=#82b366;" vertex="1" parent="1">
          <mxGeometry x="630" y="332.5" width="40" height="35" as="geometry" />
        </mxCell>
        <mxCell id="eiUkFap1PjmLIXegGK6f-38" value="AS1" style="ellipse;whiteSpace=wrap;html=1;fillColor=#d5e8d4;strokeColor=#82b366;" vertex="1" parent="1">
          <mxGeometry x="500" y="610" width="40" height="35" as="geometry" />
        </mxCell>
        <mxCell id="eiUkFap1PjmLIXegGK6f-39" value="AS1" style="ellipse;whiteSpace=wrap;html=1;fillColor=#d5e8d4;strokeColor=#82b366;" vertex="1" parent="1">
          <mxGeometry x="350" y="610" width="40" height="35" as="geometry" />
        </mxCell>
        <mxCell id="eiUkFap1PjmLIXegGK6f-40" value="AS1" style="ellipse;whiteSpace=wrap;html=1;fillColor=#d5e8d4;strokeColor=#82b366;" vertex="1" parent="1">
          <mxGeometry x="590" y="500" width="40" height="35" as="geometry" />
        </mxCell>
        <mxCell id="eiUkFap1PjmLIXegGK6f-41" value="AS1" style="ellipse;whiteSpace=wrap;html=1;fillColor=#d5e8d4;strokeColor=#82b366;" vertex="1" parent="1">
          <mxGeometry x="430" y="500" width="40" height="35" as="geometry" />
        </mxCell>
        <mxCell id="eiUkFap1PjmLIXegGK6f-42" value="AS1" style="ellipse;whiteSpace=wrap;html=1;fillColor=#d5e8d4;strokeColor=#82b366;" vertex="1" parent="1">
          <mxGeometry x="270" y="500" width="40" height="35" as="geometry" />
        </mxCell>
        <mxCell id="eiUkFap1PjmLIXegGK6f-43" value="AS1" style="ellipse;whiteSpace=wrap;html=1;fillColor=#d5e8d4;strokeColor=#82b366;" vertex="1" parent="1">
          <mxGeometry x="430" y="360" width="40" height="35" as="geometry" />
        </mxCell>
        <mxCell id="eiUkFap1PjmLIXegGK6f-44" value="AS1" style="ellipse;whiteSpace=wrap;html=1;fillColor=#d5e8d4;strokeColor=#82b366;" vertex="1" parent="1">
          <mxGeometry x="690" y="700" width="40" height="35" as="geometry" />
        </mxCell>
        <mxCell id="eiUkFap1PjmLIXegGK6f-45" value="AS1" style="ellipse;whiteSpace=wrap;html=1;fillColor=#d5e8d4;strokeColor=#82b366;" vertex="1" parent="1">
          <mxGeometry x="690" y="610" width="40" height="35" as="geometry" />
        </mxCell>
        <mxCell id="eiUkFap1PjmLIXegGK6f-46" value="AS1" style="ellipse;whiteSpace=wrap;html=1;fillColor=#d5e8d4;strokeColor=#82b366;" vertex="1" parent="1">
          <mxGeometry x="90" y="320" width="40" height="35" as="geometry" />
        </mxCell>
        <mxCell id="eiUkFap1PjmLIXegGK6f-50" value="DS1" style="ellipse;whiteSpace=wrap;html=1;fillColor=#dae8fc;strokeColor=#6c8ebf;" vertex="1" parent="1">
          <mxGeometry x="340" y="360" width="40" height="35" as="geometry" />
        </mxCell>
      </root>
    </mxGraphModel>
  </diagram>
  <diagram id="7jYgGof-4tveilgZ4uoj" name="Page-8">
    <mxGraphModel dx="742" dy="423" grid="1" gridSize="10" guides="1" tooltips="1" connect="1" arrows="1" fold="1" page="1" pageScale="1" pageWidth="827" pageHeight="1169" math="0" shadow="0">
      <root>
        <mxCell id="0" />
        <mxCell id="1" parent="0" />
        <mxCell id="TnnKc3t6vt2lU4GUlk-P-3" value="" style="edgeStyle=orthogonalEdgeStyle;rounded=0;orthogonalLoop=1;jettySize=auto;html=1;" edge="1" parent="1" source="TnnKc3t6vt2lU4GUlk-P-1" target="TnnKc3t6vt2lU4GUlk-P-2">
          <mxGeometry relative="1" as="geometry" />
        </mxCell>
        <mxCell id="TnnKc3t6vt2lU4GUlk-P-1" value="REST Endpoint Server" style="shape=cylinder3;whiteSpace=wrap;html=1;boundedLbl=1;backgroundOutline=1;size=15;" vertex="1" parent="1">
          <mxGeometry x="600" y="180" width="110" height="140" as="geometry" />
        </mxCell>
        <mxCell id="TnnKc3t6vt2lU4GUlk-P-5" value="" style="edgeStyle=orthogonalEdgeStyle;rounded=0;orthogonalLoop=1;jettySize=auto;html=1;" edge="1" parent="1" source="TnnKc3t6vt2lU4GUlk-P-2" target="TnnKc3t6vt2lU4GUlk-P-4">
          <mxGeometry relative="1" as="geometry" />
        </mxCell>
        <mxCell id="TnnKc3t6vt2lU4GUlk-P-2" value="Post Service" style="whiteSpace=wrap;html=1;" vertex="1" parent="1">
          <mxGeometry x="405" y="220" width="120" height="60" as="geometry" />
        </mxCell>
        <mxCell id="TnnKc3t6vt2lU4GUlk-P-7" value="" style="edgeStyle=orthogonalEdgeStyle;rounded=0;orthogonalLoop=1;jettySize=auto;html=1;" edge="1" parent="1" source="TnnKc3t6vt2lU4GUlk-P-4" target="TnnKc3t6vt2lU4GUlk-P-6">
          <mxGeometry relative="1" as="geometry" />
        </mxCell>
        <mxCell id="TnnKc3t6vt2lU4GUlk-P-4" value="Post Component" style="whiteSpace=wrap;html=1;" vertex="1" parent="1">
          <mxGeometry x="205" y="220" width="120" height="60" as="geometry" />
        </mxCell>
        <mxCell id="TnnKc3t6vt2lU4GUlk-P-6" value="UI" style="whiteSpace=wrap;html=1;" vertex="1" parent="1">
          <mxGeometry x="205" y="360" width="120" height="60" as="geometry" />
        </mxCell>
      </root>
    </mxGraphModel>
  </diagram>
</mxfile>
